<svg width="24" height="24" viewBox="0 0 24 24" fill="none" xmlns="http://www.w3.org/2000/svg">
<path d="M13.7637 8.03692L4.57605 17.1584C3.84936 17.8799 3.85131 19.0474 4.58041 19.7663C5.30952 20.4851 6.48968 20.4829 7.21638 19.7615L16.404 10.64C17.1307 9.91853 17.1288 8.75095 16.3997 8.03213C15.6706 7.31332 14.4904 7.31546 13.7637 8.03692Z" fill="black"/>
<path d="M6.08119 9.36524L16.6831 19.8908C17.3882 20.5908 18.5332 20.5928 19.2405 19.8954C19.9479 19.198 19.9498 18.0652 19.2448 17.3653L8.64286 6.83972C7.93781 6.13975 6.7928 6.13767 6.08541 6.83507C5.37803 7.53247 5.37614 8.66527 6.08119 9.36524Z" fill="black"/>
<path d="M14.0816 4.43178L14.0601 4.4531C12.4222 6.07349 12.4222 8.70068 14.0601 10.3211L14.0816 10.3424C15.7195 11.9628 18.375 11.9628 20.0129 10.3424L20.0344 10.3211C21.6723 8.70068 21.6723 6.07349 20.0344 4.45309L20.0129 4.43178C18.375 2.81138 15.7195 2.81138 14.0816 4.43178Z" fill="black"/>
<path d="M6.03889 11.4681L10.7664 6.79098C11.51 6.05534 11.51 4.86263 10.7664 4.12699C10.0229 3.39135 8.81731 3.39135 8.07374 4.12699L3.34619 8.80413C2.60262 9.53977 2.60262 10.7325 3.34619 11.4681C4.08976 12.2038 5.29532 12.2038 6.03889 11.4681Z" fill="black"/>
</svg>
