<svg width="90" height="90" viewBox="0 0 90 90" fill="none" xmlns="http://www.w3.org/2000/svg">
<path d="M89.3019 45.3281C89.3019 69.6428 69.4704 89.3585 45.001 89.3585C20.5316 89.3585 0.700074 69.6428 0.700074 45.3281C0.700074 21.0135 20.5316 1.29773 45.001 1.29773C69.4704 1.29773 89.3019 21.0135 89.3019 45.3281Z" fill="#D9D9D9" stroke="white" stroke-width="0.93921"/>
<path fill-rule="evenodd" clip-rule="evenodd" d="M70.4891 73.7336C72.1616 75.6918 71.7812 78.6158 69.6986 80.1305C62.6362 85.2667 54.0898 88.2715 44.8822 88.2715C35.7151 88.2715 27.2035 85.2931 20.1593 80.1983C18.0725 78.689 17.6848 75.7657 19.3525 73.8033C25.675 66.3633 34.8019 61.6914 44.9504 61.6914C55.0673 61.6914 64.1689 66.3342 70.4891 73.7336Z" fill="#EAEAEA"/>
<ellipse cx="45.0475" cy="46.1889" rx="16.9537" ry="18.1069" fill="#EAEAEA"/>
</svg>
