<svg width="158" height="46" viewBox="0 0 158 46" fill="none" xmlns="http://www.w3.org/2000/svg">
<rect width="158" height="46" rx="20" fill="#7CD0FF" fill-opacity="0.4"/>
<path d="M44.8438 15.0586V16.6602C44.8438 18.3203 44.8438 20.1367 44.3945 22.6172H46.7383V24.6289H39.8047V31.8164H37.3047V24.6289H30.5273V22.6172H41.875C42.3242 20.3223 42.3633 18.584 42.3633 17.0508H32.3828V15.0586H44.8438ZM62.1484 14.7461V15.957C62.1484 17.0996 62.1484 18.5254 61.8164 20.3125H64.082V22.2656H47.8125V20.3125H59.2969C59.5898 18.8672 59.6484 17.7051 59.668 16.7188H49.8047V14.7461H62.1484ZM62.0703 23.5156V28.4961H52.1484V29.7461H62.5586V31.6602H49.668V26.6211H59.6094V25.4492H49.6484V23.5156H62.0703ZM81.3086 22.6367V24.6094H65.0977V22.6367H71.9336V21.2109H66.6406V19.2188H68.8281V16.5039H66.5234V14.5117H79.8633V16.5039H77.5391V19.2188H79.7461V21.2109H74.4336V22.6367H81.3086ZM79.375 25.8203V31.6016H66.9727V25.8203H79.375ZM69.4336 27.7734V29.6094H76.9336V27.7734H69.4336ZM71.3281 19.2188H75.0391V16.5039H71.3281V19.2188Z" fill="#7CD0FF"/>
<path d="M114.105 17.7896H109.244C108.005 17.7896 107 18.7941 107 20.0333V29.7563C107 30.9955 108.005 32.0001 109.244 32.0001H118.967C120.206 32.0001 121.211 30.9955 121.211 29.7563V24.8948" stroke="#7CD0FF" stroke-width="2" stroke-linecap="round" stroke-linejoin="round"/>
<path d="M113.422 24.1627C113.031 24.5532 113.031 25.1864 113.422 25.5769C113.812 25.9675 114.445 25.9675 114.836 25.577L113.422 24.1627ZM126 14.0002C126 13.4479 125.552 13.0001 125 13.0001L116 12.9997C115.447 12.9997 115 13.4474 115 13.9997C115 14.552 115.447 14.9997 116 14.9997L124 15.0001L123.999 23.0001C123.999 23.5524 124.447 24.0001 124.999 24.0001C125.551 24.0001 125.999 23.5524 125.999 23.0002L126 14.0002ZM114.836 25.577L125.707 14.7073L124.293 13.293L113.422 24.1627L114.836 25.577Z" fill="#7CD0FF"/>
</svg>
