<svg width="600" height="90" viewBox="0 0 600 90" fill="none" xmlns="http://www.w3.org/2000/svg">
<rect width="600" height="90" rx="12" fill="#FEE500"/>
<path fill-rule="evenodd" clip-rule="evenodd" d="M46 28.2C36.0583 28.2 28 34.4259 28 42.1045C28 46.88 31.1168 51.0899 35.863 53.5939L33.8661 60.8889C33.6896 61.5335 34.4268 62.0473 34.9929 61.6738L43.7467 55.8964C44.4854 55.9676 45.2362 56.0093 46 56.0093C55.9409 56.0093 63.9999 49.7836 63.9999 42.1045C63.9999 34.4259 55.9409 28.2 46 28.2Z" fill="black"/>
<path d="M154.93 35.93C154.91 44.65 150.96 51.08 143.08 55.22L141.1 53C145.26 51.1 148.24 48.33 150.04 44.69L142.21 45.53L141.73 42.86L151.06 42.17C151.42 40.87 151.64 39.62 151.72 38.42H143.08V35.93H154.93ZM162.16 33.14V43.58H166.3V46.13H162.16V59.87H159.07V33.14H162.16ZM180.887 35.93C180.867 44.65 176.917 51.08 169.037 55.22L167.057 53C171.217 51.1 174.197 48.33 175.997 44.69L168.167 45.53L167.687 42.86L177.017 42.17C177.377 40.87 177.597 39.62 177.677 38.42H169.037V35.93H180.887ZM188.117 33.14V43.58H192.257V46.13H188.117V59.87H185.027V33.14H188.117ZM217.464 56.45H193.314V53.99H203.814V49.43C201.334 49.19 199.364 48.42 197.904 47.12C196.444 45.8 195.714 44.14 195.714 42.14C195.714 39.94 196.594 38.17 198.354 36.83C200.134 35.47 202.474 34.79 205.374 34.79C208.314 34.79 210.664 35.47 212.424 36.83C214.204 38.17 215.094 39.94 215.094 42.14C215.094 44.14 214.354 45.8 212.874 47.12C211.394 48.44 209.394 49.22 206.874 49.46V53.99H217.464V56.45ZM212.004 42.17C212.004 40.73 211.394 39.56 210.174 38.66C208.974 37.76 207.374 37.31 205.374 37.31C203.414 37.31 201.824 37.76 200.604 38.66C199.404 39.56 198.804 40.73 198.804 42.17C198.804 43.59 199.404 44.74 200.604 45.62C201.824 46.48 203.414 46.91 205.374 46.91C207.354 46.91 208.954 46.48 210.174 45.62C211.394 44.74 212.004 43.59 212.004 42.17ZM241.081 49.55H232.831V54.02H243.421V56.48H219.271V54.02H229.771V49.55H222.361V40.91H237.241V37.46H222.271V35H240.301V43.4H225.451V47.06H241.081V49.55ZM259.319 56.54C256.919 56.54 255.019 56.06 253.619 55.1L254.189 52.79C254.729 53.13 255.439 53.42 256.319 53.66C257.219 53.9 258.049 54.02 258.809 54.02C260.329 54.02 261.489 53.71 262.289 53.09C263.089 52.45 263.489 51.54 263.489 50.36C263.489 48.1 261.979 46.95 258.959 46.91L256.979 46.88V44.51L258.749 44.48C260.009 44.46 260.999 44.17 261.719 43.61C262.459 43.03 262.829 42.23 262.829 41.21C262.829 39.17 261.569 38.15 259.049 38.15C257.849 38.15 256.409 38.56 254.729 39.38L254.339 37.01C254.979 36.61 255.819 36.28 256.859 36.02C257.899 35.74 258.889 35.6 259.829 35.6C261.709 35.6 263.209 36.05 264.329 36.95C265.449 37.83 266.009 39.07 266.009 40.67C266.009 42.99 264.759 44.58 262.259 45.44C265.239 46.02 266.729 47.7 266.729 50.48C266.729 52.32 266.059 53.79 264.719 54.89C263.379 55.99 261.579 56.54 259.319 56.54ZM292.413 47.33L291.153 49.88C289.093 49.54 287.093 48.79 285.153 47.63C283.233 46.47 281.933 45.21 281.253 43.85C280.573 45.23 279.293 46.48 277.413 47.6C275.533 48.72 273.513 49.46 271.353 49.82L270.063 47.39C272.243 47.19 274.293 46.5 276.213 45.32C278.153 44.12 279.303 42.74 279.663 41.18H271.443V38.69H291.093V41.18H282.933C283.293 42.72 284.453 44.1 286.413 45.32C288.373 46.52 290.373 47.19 292.413 47.33ZM293.343 56.51H269.193V54.02H279.693V48.5H282.753V54.02H293.343V56.51ZM276.843 36.56V34.1H285.663V36.56H276.843ZM315.91 33.14V40.88H319.84V43.46H315.91V52.52H312.82V33.14H315.91ZM316.69 59.06H298.81V50.57H301.9V56.57H316.69V59.06ZM308.41 47.75H295.99V35.27H308.41V47.75ZM305.32 45.32V37.7H299.08V45.32H305.32ZM338.447 58.61H335.537V46.04H332.867C332.727 48.42 332.177 50.36 331.217 51.86C330.257 53.34 328.907 54.08 327.167 54.08C325.887 54.08 324.797 53.64 323.897 52.76C323.017 51.88 322.377 50.76 321.977 49.4C321.597 48.02 321.407 46.45 321.407 44.69C321.407 41.99 321.887 39.76 322.847 38C323.827 36.24 325.267 35.36 327.167 35.36C328.907 35.36 330.257 36.12 331.217 37.64C332.197 39.14 332.747 41.09 332.867 43.49H335.537V33.65H338.447V58.61ZM343.637 59.87H340.697V33.14H343.637V59.87ZM329.297 49.58C329.777 48.36 330.017 46.74 330.017 44.72C330.017 42.7 329.777 41.08 329.297 39.86C328.817 38.62 328.117 38 327.197 38C326.277 38 325.577 38.62 325.097 39.86C324.617 41.08 324.377 42.7 324.377 44.72C324.377 46.72 324.617 48.33 325.097 49.55C325.577 50.77 326.277 51.38 327.197 51.38C328.117 51.38 328.817 50.78 329.297 49.58ZM376.755 49.55H368.505V54.02H379.095V56.48H354.945V54.02H365.445V49.55H358.035V40.91H372.915V37.46H357.945V35H375.975V43.4H361.125V47.06H376.755V49.55ZM405.052 55.97H380.902V53.48H405.052V55.97ZM401.902 36.02C401.902 42.62 401.512 47.82 400.732 51.62L397.702 51.23C398.022 49.93 398.282 48.04 398.482 45.56C398.702 43.06 398.812 40.69 398.812 38.45H383.692V36.02H401.902ZM428.849 52.52H425.789V33.14H428.849V52.52ZM429.479 59.09H411.179V50.69H414.239V56.63H429.479V59.09ZM419.429 36.95C420.709 38.17 421.349 39.74 421.349 41.66C421.349 43.58 420.709 45.15 419.429 46.37C418.169 47.59 416.529 48.2 414.509 48.2C412.469 48.2 410.809 47.59 409.529 46.37C408.249 45.15 407.609 43.59 407.609 41.69C407.609 39.77 408.249 38.2 409.529 36.98C410.809 35.74 412.469 35.12 414.509 35.12C416.529 35.12 418.169 35.73 419.429 36.95ZM418.289 41.66C418.289 40.48 417.949 39.52 417.269 38.78C416.589 38.04 415.669 37.67 414.509 37.67C413.389 37.67 412.469 38.05 411.749 38.81C411.049 39.55 410.699 40.5 410.699 41.66C410.699 42.78 411.049 43.72 411.749 44.48C412.469 45.22 413.389 45.59 414.509 45.59C415.649 45.59 416.559 45.22 417.239 44.48C417.939 43.72 418.289 42.78 418.289 41.66ZM446.796 48.86C446.796 50.48 446.206 51.84 445.026 52.94C443.846 54.02 442.316 54.56 440.436 54.56C438.536 54.56 436.986 54.03 435.786 52.97C434.606 51.89 434.016 50.52 434.016 48.86C434.016 47.24 434.606 45.89 435.786 44.81C436.986 43.71 438.536 43.16 440.436 43.16C442.316 43.16 443.846 43.7 445.026 44.78C446.206 45.84 446.796 47.2 446.796 48.86ZM442.866 51.17C443.466 50.57 443.766 49.8 443.766 48.86C443.766 47.92 443.446 47.16 442.806 46.58C442.186 45.98 441.396 45.68 440.436 45.68C439.456 45.68 438.656 45.98 438.036 46.58C437.416 47.16 437.106 47.92 437.106 48.86C437.106 49.8 437.416 50.57 438.036 51.17C438.656 51.75 439.456 52.04 440.436 52.04C441.456 52.04 442.266 51.75 442.866 51.17ZM448.146 41.87H432.606V39.38H448.146V41.87ZM436.386 37.22V34.7H444.486V37.22H436.386ZM453.576 33.14V44.12H457.716V46.7H453.576V59.87H450.486V33.14H453.576ZM480.793 59.87H477.733V33.14H480.793V59.87ZM472.603 35.96C472.423 44.26 468.413 50.56 460.573 54.86L458.653 52.52C461.673 51.14 464.133 49.17 466.033 46.61C467.953 44.05 469.043 41.34 469.303 38.48H460.213V35.96H472.603Z" fill="black" fill-opacity="0.85"/>
</svg>
