<svg width="450" height="68" viewBox="0 0 450 68" fill="none" xmlns="http://www.w3.org/2000/svg">
<rect y="0.25" width="450" height="67.5" rx="9" fill="#FEE500"/>
<path fill-rule="evenodd" clip-rule="evenodd" d="M34.5 21.4C27.0438 21.4 21 26.0695 21 31.8284C21 35.4101 23.3376 38.5675 26.8973 40.4455L25.3995 45.9168C25.2672 46.4002 25.8201 46.7856 26.2447 46.5054L32.81 42.1723C33.3641 42.2258 33.9271 42.257 34.5 42.257C41.9557 42.257 47.9999 37.5877 47.9999 31.8284C47.9999 26.0695 41.9557 21.4 34.5 21.4Z" fill="black"/>
<path d="M116.198 26.9475C116.183 33.4875 113.22 38.31 107.31 41.415L105.825 39.75C108.945 38.325 111.18 36.2475 112.53 33.5175L106.658 34.1475L106.298 32.145L113.295 31.6275C113.565 30.6525 113.73 29.715 113.79 28.815H107.31V26.9475H116.198ZM121.62 24.855V32.685H124.725V34.5975H121.62V44.9025H119.303V24.855H121.62ZM135.665 26.9475C135.65 33.4875 132.688 38.31 126.778 41.415L125.293 39.75C128.413 38.325 130.648 36.2475 131.998 33.5175L126.125 34.1475L125.765 32.145L132.763 31.6275C133.033 30.6525 133.198 29.715 133.258 28.815H126.778V26.9475H135.665ZM141.088 24.855V32.685H144.193V34.5975H141.088V44.9025H138.77V24.855H141.088ZM163.098 42.3375H144.986V40.4925H152.861V37.0725C151.001 36.8925 149.523 36.315 148.428 35.34C147.333 34.35 146.786 33.105 146.786 31.605C146.786 29.955 147.446 28.6275 148.766 27.6225C150.101 26.6025 151.856 26.0925 154.031 26.0925C156.236 26.0925 157.998 26.6025 159.318 27.6225C160.653 28.6275 161.321 29.955 161.321 31.605C161.321 33.105 160.766 34.35 159.656 35.34C158.546 36.33 157.046 36.915 155.156 37.095V40.4925H163.098V42.3375ZM159.003 31.6275C159.003 30.5475 158.546 29.67 157.631 28.995C156.731 28.32 155.531 27.9825 154.031 27.9825C152.561 27.9825 151.368 28.32 150.453 28.995C149.553 29.67 149.103 30.5475 149.103 31.6275C149.103 32.6925 149.553 33.555 150.453 34.215C151.368 34.86 152.561 35.1825 154.031 35.1825C155.516 35.1825 156.716 34.86 157.631 34.215C158.546 33.555 159.003 32.6925 159.003 31.6275ZM180.811 37.1625H174.623V40.515H182.566V42.36H164.453V40.515H172.328V37.1625H166.771V30.6825H177.931V28.095H166.703V26.25H180.226V32.55H169.088V35.295H180.811V37.1625ZM194.489 42.405C192.689 42.405 191.264 42.045 190.214 41.325L190.642 39.5925C191.047 39.8475 191.579 40.065 192.239 40.245C192.914 40.425 193.537 40.515 194.107 40.515C195.247 40.515 196.117 40.2825 196.717 39.8175C197.317 39.3375 197.617 38.655 197.617 37.77C197.617 36.075 196.484 35.2125 194.219 35.1825L192.734 35.16V33.3825L194.062 33.36C195.007 33.345 195.749 33.1275 196.289 32.7075C196.844 32.2725 197.122 31.6725 197.122 30.9075C197.122 29.3775 196.177 28.6125 194.287 28.6125C193.387 28.6125 192.307 28.92 191.047 29.535L190.754 27.7575C191.234 27.4575 191.864 27.21 192.644 27.015C193.424 26.805 194.167 26.7 194.872 26.7C196.282 26.7 197.407 27.0375 198.247 27.7125C199.087 28.3725 199.507 29.3025 199.507 30.5025C199.507 32.2425 198.569 33.435 196.694 34.08C198.929 34.515 200.047 35.775 200.047 37.86C200.047 39.24 199.544 40.3425 198.539 41.1675C197.534 41.9925 196.184 42.405 194.489 42.405ZM219.31 35.4975L218.365 37.41C216.82 37.155 215.32 36.5925 213.865 35.7225C212.425 34.8525 211.45 33.9075 210.94 32.8875C210.43 33.9225 209.47 34.86 208.06 35.7C206.65 36.54 205.135 37.095 203.515 37.365L202.547 35.5425C204.182 35.3925 205.72 34.875 207.16 33.99C208.615 33.09 209.477 32.055 209.747 30.885H203.582V29.0175H218.32V30.885H212.2C212.47 32.04 213.34 33.075 214.81 33.99C216.28 34.89 217.78 35.3925 219.31 35.4975ZM220.007 42.3825H201.895V40.515H209.77V36.375H212.065V40.515H220.007V42.3825ZM207.632 27.42V25.575H214.247V27.42H207.632ZM236.933 24.855V30.66H239.88V32.595H236.933V39.39H234.615V24.855H236.933ZM237.518 44.295H224.108V37.9275H226.425V42.4275H237.518V44.295ZM231.308 35.8125H221.993V26.4525H231.308V35.8125ZM228.99 33.99V28.275H224.31V33.99H228.99ZM253.835 43.9575H251.653V34.53H249.65C249.545 36.315 249.133 37.77 248.413 38.895C247.693 40.005 246.68 40.56 245.375 40.56C244.415 40.56 243.598 40.23 242.923 39.57C242.263 38.91 241.783 38.07 241.483 37.05C241.198 36.015 241.055 34.8375 241.055 33.5175C241.055 31.4925 241.415 29.82 242.135 28.5C242.87 27.18 243.95 26.52 245.375 26.52C246.68 26.52 247.693 27.09 248.413 28.23C249.148 29.355 249.56 30.8175 249.65 32.6175H251.653V25.2375H253.835V43.9575ZM257.728 44.9025H255.523V24.855H257.728V44.9025ZM246.973 37.185C247.333 36.27 247.513 35.055 247.513 33.54C247.513 32.025 247.333 30.81 246.973 29.895C246.613 28.965 246.088 28.5 245.398 28.5C244.708 28.5 244.183 28.965 243.823 29.895C243.463 30.81 243.283 32.025 243.283 33.54C243.283 35.04 243.463 36.2475 243.823 37.1625C244.183 38.0775 244.708 38.535 245.398 38.535C246.088 38.535 246.613 38.085 246.973 37.185ZM282.566 37.1625H276.379V40.515H284.321V42.36H266.209V40.515H274.084V37.1625H268.526V30.6825H279.686V28.095H268.459V26.25H281.981V32.55H270.844V35.295H282.566V37.1625ZM303.789 41.9775H285.676V40.11H303.789V41.9775ZM301.426 27.015C301.426 31.965 301.134 35.865 300.549 38.715L298.276 38.4225C298.516 37.4475 298.711 36.03 298.861 34.17C299.026 32.295 299.109 30.5175 299.109 28.8375H287.769V27.015H301.426ZM321.637 39.39H319.342V24.855H321.637V39.39ZM322.109 44.3175H308.384V38.0175H310.679V42.4725H322.109V44.3175ZM314.572 27.7125C315.532 28.6275 316.012 29.805 316.012 31.245C316.012 32.685 315.532 33.8625 314.572 34.7775C313.627 35.6925 312.397 36.15 310.882 36.15C309.352 36.15 308.107 35.6925 307.147 34.7775C306.187 33.8625 305.707 32.6925 305.707 31.2675C305.707 29.8275 306.187 28.65 307.147 27.735C308.107 26.805 309.352 26.34 310.882 26.34C312.397 26.34 313.627 26.7975 314.572 27.7125ZM313.717 31.245C313.717 30.36 313.462 29.64 312.952 29.085C312.442 28.53 311.752 28.2525 310.882 28.2525C310.042 28.2525 309.352 28.5375 308.812 29.1075C308.287 29.6625 308.024 30.375 308.024 31.245C308.024 32.085 308.287 32.79 308.812 33.36C309.352 33.915 310.042 34.1925 310.882 34.1925C311.737 34.1925 312.419 33.915 312.929 33.36C313.454 32.79 313.717 32.085 313.717 31.245ZM335.097 36.645C335.097 37.86 334.655 38.88 333.77 39.705C332.885 40.515 331.737 40.92 330.327 40.92C328.902 40.92 327.74 40.5225 326.84 39.7275C325.955 38.9175 325.512 37.89 325.512 36.645C325.512 35.43 325.955 34.4175 326.84 33.6075C327.74 32.7825 328.902 32.37 330.327 32.37C331.737 32.37 332.885 32.775 333.77 33.585C334.655 34.38 335.097 35.4 335.097 36.645ZM332.15 38.3775C332.6 37.9275 332.825 37.35 332.825 36.645C332.825 35.94 332.585 35.37 332.105 34.935C331.64 34.485 331.047 34.26 330.327 34.26C329.592 34.26 328.992 34.485 328.527 34.935C328.062 35.37 327.83 35.94 327.83 36.645C327.83 37.35 328.062 37.9275 328.527 38.3775C328.992 38.8125 329.592 39.03 330.327 39.03C331.092 39.03 331.7 38.8125 332.15 38.3775ZM336.11 31.4025H324.455V29.535H336.11V31.4025ZM327.29 27.915V26.025H333.365V27.915H327.29ZM340.182 24.855V33.09H343.287V35.025H340.182V44.9025H337.865V24.855H340.182ZM360.595 44.9025H358.3V24.855H360.595V44.9025ZM354.452 26.97C354.317 33.195 351.31 37.92 345.43 41.145L343.99 39.39C346.255 38.355 348.1 36.8775 349.525 34.9575C350.965 33.0375 351.782 31.005 351.977 28.86H345.16V26.97H354.452Z" fill="black" fill-opacity="0.85"/>
</svg>
