<svg width="24" height="24" viewBox="0 0 24 24" fill="none" xmlns="http://www.w3.org/2000/svg">
<path d="M10.1053 6.78943H5.24377C4.00457 6.78943 3 7.794 3 9.03319V18.7562C3 19.9954 4.00457 21 5.24377 21H14.9668C16.206 21 17.2105 19.9954 17.2105 18.7562V13.8947" stroke="#8C8C8C" stroke-width="2" stroke-linecap="round" stroke-linejoin="round"/>
<path d="M9.42183 13.1626C9.03129 13.5531 9.03126 14.1863 9.42177 14.5768C9.81228 14.9674 10.4454 14.9674 10.836 14.5769L9.42183 13.1626ZM21.9996 3.00004C21.9996 2.44775 21.5519 2.00002 20.9996 1.99999L11.9996 1.99961C11.4473 1.99959 10.9996 2.44728 10.9996 2.99957C10.9996 3.55185 11.4473 3.99959 11.9995 3.99961L19.9995 3.99995L19.9992 12C19.9992 12.5522 20.4469 13 20.9992 13C21.5514 13 21.9992 12.5523 21.9992 12L21.9996 3.00004ZM10.836 14.5769L21.7067 3.70713L20.2925 2.29286L9.42183 13.1626L10.836 14.5769Z" fill="#8C8C8C"/>
</svg>
