<svg width="145" height="39" viewBox="0 0 145 39" fill="none" xmlns="http://www.w3.org/2000/svg">
<g clip-path="url(#clip0_1199_3885)">
<path fill-rule="evenodd" clip-rule="evenodd" d="M25.1181 2.75553L25.1661 2.70803C28.8157 -0.902678 34.7329 -0.902677 38.3825 2.70803L38.4305 2.75553C42.0802 6.36624 42.0802 12.2204 38.4305 15.8311L38.3825 15.8786C35.7831 18.4503 32.0332 19.1903 28.7717 18.0986L25.9577 20.8923L36.6702 31.5276C38.2412 33.0873 38.237 35.6115 36.6608 37.1655C35.0845 38.7196 32.5331 38.7149 30.9621 37.1552L20.2694 26.5396L9.86695 36.8671C8.24766 38.4748 5.61793 38.4795 3.99327 36.8778C2.36862 35.2761 2.36427 32.6744 3.98356 31.0668L14.4065 20.7189L9.65456 16.0012L7.24277 18.3872C5.58589 20.0265 2.89955 20.0265 1.24266 18.3872C-0.414221 16.748 -0.414221 14.0903 1.24266 12.4511L11.777 2.02909C13.4339 0.389872 16.1202 0.389873 17.7771 2.02909C19.434 3.66831 19.434 6.32601 17.7771 7.96522L15.3528 10.3637L20.0948 15.0716L22.8865 12.2999C21.7651 9.06483 22.5089 5.33688 25.1181 2.75553Z" fill="#0054FF"/>
</g>
<path d="M81.9929 27.2888C81.9929 30.0408 80.1689 33.1448 75.1129 33.1448H66.4729C61.4169 33.1448 59.5929 30.0408 59.5929 27.2888C59.5929 24.5368 61.4169 21.4328 66.4729 21.4328H75.1129C80.1689 21.4328 81.9929 24.5368 81.9929 27.2888ZM84.9369 19.9288H56.6489V15.8968H66.5369V11.4168H71.4649V15.8968H84.9369V19.9288ZM76.5529 9.01679H59.8489V4.85679H81.4169V13.7208L77.8329 14.9688C76.9369 15.2888 76.5529 15.0648 76.5529 14.2328V9.01679ZM77.0649 27.2888C77.0649 26.1368 76.3609 25.5288 75.0489 25.5288H66.5369C65.2249 25.5288 64.5209 26.1368 64.5209 27.2888C64.5209 28.4408 65.2249 29.0488 66.5369 29.0488H75.0489C76.3609 29.0488 77.0649 28.4408 77.0649 27.2888ZM104.139 17.1768L100.939 20.2808L94.9229 15.3848L88.6829 20.6008L85.5149 17.4968L92.4589 11.7688V9.33679H86.8909V5.17679H102.827V9.33679H97.3869V11.7368L104.139 17.1768ZM105.803 26.0728H90.3789V21.9128H110.667V32.2488L107.083 33.4968C106.187 33.8168 105.803 33.5928 105.803 32.7608V26.0728ZM110.667 19.7688L107.083 21.0168C106.187 21.3368 105.803 21.1128 105.803 20.2808V3.92879H110.667V9.68879H115.051V13.9768H110.667V19.7688ZM131.821 5.17679V10.7448L141.837 19.1288L138.605 22.2968L129.293 14.4568L119.981 22.2968L116.749 19.1288L126.765 10.7448V5.17679H131.821ZM143.437 30.2648H115.149V26.0408H126.829V20.3768H131.757V26.0408H143.437V30.2648Z" fill="#0054FF"/>
<defs>
<clipPath id="clip0_1199_3885">
<rect width="41.1689" height="38.3296" fill="white"/>
</clipPath>
</defs>
</svg>
