<svg width="331" height="329" viewBox="0 0 331 329" fill="none" xmlns="http://www.w3.org/2000/svg">
<path d="M329.5 164.5C329.5 254.514 256.083 327.5 165.5 327.5C74.9167 327.5 1.5 254.514 1.5 164.5C1.5 74.4861 74.9167 1.5 165.5 1.5C256.083 1.5 329.5 74.4861 329.5 164.5Z" fill="#D9D9D9" stroke="white" stroke-width="3"/>
<path fill-rule="evenodd" clip-rule="evenodd" d="M261.171 271.24C266.408 277.583 265.199 286.894 258.614 291.823C232.162 311.626 199.891 323.258 165.061 323.258C130.383 323.258 98.2413 311.727 71.8542 292.082C65.256 287.169 64.0224 277.861 69.2437 271.504C92.6587 242.997 127.02 225 165.316 225C203.495 225 237.761 242.886 261.171 271.24Z" fill="#EAEAEA"/>
<ellipse cx="165.672" cy="167.679" rx="62.6716" ry="66.9344" fill="#EAEAEA"/>
</svg>
