<svg width="143" height="52" viewBox="0 0 143 52" fill="none" xmlns="http://www.w3.org/2000/svg">
<rect width="143" height="52" rx="10" fill="black"/>
<path d="M29.1914 18.8594H32.8242L36.75 28.4492H36.9062L40.832 18.8594H44.4648V33H41.6133V23.7422H41.4961L37.8047 32.9414H35.8516L32.1602 23.7031H32.043V33H29.1914V18.8594ZM45.9883 18.8594H49.2891L52.5508 24.9531H52.6875L55.9297 18.8594H59.2305L54.0742 27.9609V33H51.1445V27.9609L45.9883 18.8594ZM65.3633 33V18.8594H70.9102C74.1328 18.8594 75.9688 20.832 75.9688 23.625C75.9688 26.457 74.0938 28.3906 70.832 28.3906H68.293V33H65.3633ZM68.293 26.0273H70.3633C72.1016 26.0273 72.9414 25.0508 72.9414 23.625C72.9414 22.2188 72.1016 21.2617 70.3633 21.2617H68.293V26.0273ZM78.5469 33H75.3828L80.2852 18.8594H84.0547L88.9375 33H85.793L84.7383 29.7383H79.6211L78.5469 33ZM80.3633 27.4531H83.9961L82.2188 22.043H82.1211L80.3633 27.4531ZM99.2695 23.4102C98.8789 22.082 97.8047 21.2617 96.2617 21.2617C94.0742 21.2617 92.5898 22.9414 92.5898 25.9102C92.5898 28.8984 94.0352 30.5977 96.2812 30.5977C98.3027 30.5977 99.5039 29.4551 99.543 27.668H96.4766V25.4609H102.375V27.2188C102.375 30.9297 99.8359 33.1953 96.2617 33.1953C92.2969 33.1953 89.6016 30.4219 89.6016 25.9492C89.6016 21.3594 92.4727 18.6641 96.2031 18.6641C99.3867 18.6641 101.848 20.6172 102.238 23.4102H99.2695ZM104.523 33V18.8594H114.016V21.2812H107.453V24.7188H113.527V27.1406H107.453V30.5781H114.035V33H104.523Z" fill="white"/>
</svg>
