<svg width="158" height="46" viewBox="0 0 158 46" fill="none" xmlns="http://www.w3.org/2000/svg">
<rect width="158" height="46" rx="20" fill="#7CD0FF" fill-opacity="0.4"/>
<path d="M38.6328 14.9414C42.4609 14.9414 45.3125 16.875 45.332 19.8047C45.3125 22.4805 43.0566 24.2871 39.8633 24.6484V27.6758H46.7969V29.7266H30.5273V27.6758H37.3828V24.6289C34.1992 24.2871 31.9531 22.4707 31.9531 19.8047C31.9531 16.875 34.8047 14.9414 38.6328 14.9414ZM38.6328 16.9336C36.1523 16.9336 34.4141 18.0273 34.4141 19.8047C34.4141 21.6797 36.1523 22.7344 38.6328 22.7344C41.1328 22.7344 42.8516 21.6797 42.8711 19.8047C42.8516 18.0273 41.1328 16.9336 38.6328 16.9336ZM62.5781 14.7656V16.7188H60.2539V19.8047H62.4609V21.7773H49.3555V19.8047H51.543V16.7188H49.2383V14.7656H62.5781ZM64.0234 23.2031V25.1562H47.8125V23.2031H64.0234ZM62.1875 29.4922V31.4844H49.7656V26.3672H52.2656V29.4922H62.1875ZM54.043 19.8047H57.7539V16.7188H54.043V19.8047ZM74.375 15.7227C74.3555 21.2109 73.0273 25.7812 66.3867 29.1016L65.0195 27.2266C67.9883 25.752 69.7559 24.1016 70.7617 22.1289L65.5078 22.6172L65.1953 20.4883L71.5234 20.0977C71.6992 19.3555 71.8262 18.5547 71.8945 17.7148H66.1328V15.7227H74.375ZM79.1211 14.0234V20.8398H81.6406V22.8906H79.1211V31.7578H76.6211V14.0234H79.1211ZM98.5938 23.457V25.4102H82.3438V23.457H89.2188V22.1484H84.375V14.4141H96.6992V16.3477H86.875V17.3438H96.2891V19.1797H86.875V20.2539H96.8555V22.1484H91.7188V23.457H98.5938ZM96.6016 26.5039V31.7969H94.082V28.457H84.1797V26.5039H96.6016Z" fill="#7CD0FF"/>
<path d="M114.105 17.7896H109.244C108.005 17.7896 107 18.7941 107 20.0333V29.7563C107 30.9955 108.005 32.0001 109.244 32.0001H118.967C120.206 32.0001 121.211 30.9955 121.211 29.7563V24.8948" stroke="#7CD0FF" stroke-width="2" stroke-linecap="round" stroke-linejoin="round"/>
<path d="M113.422 24.1627C113.031 24.5532 113.031 25.1864 113.422 25.5769C113.812 25.9675 114.445 25.9675 114.836 25.577L113.422 24.1627ZM126 14.0002C126 13.4479 125.552 13.0001 125 13.0001L116 12.9997C115.447 12.9997 115 13.4474 115 13.9997C115 14.552 115.447 14.9997 116 14.9997L124 15.0001L123.999 23.0001C123.999 23.5524 124.447 24.0001 124.999 24.0001C125.551 24.0001 125.999 23.5524 125.999 23.0002L126 14.0002ZM114.836 25.577L125.707 14.7073L124.293 13.293L113.422 24.1627L114.836 25.577Z" fill="#7CD0FF"/>
</svg>
