<svg width="208" height="46" viewBox="0 0 208 46" fill="none" xmlns="http://www.w3.org/2000/svg">
<rect width="208" height="46" rx="20" fill="#D2D2D7"/>
<path d="M45.4102 14.043V24.8438H42.9102V14.043H45.4102ZM39.6875 15.0781V20.4688H33.9062V22.0703C36.875 22.0508 38.9648 21.9531 41.3672 21.582L41.6797 23.5742C38.9453 24.0234 36.5625 24.1016 33.0273 24.1016H31.4648V18.6133H37.207V17.0898H31.4453V15.0781H39.6875ZM39.375 25.1367C43.1836 25.1367 45.5078 26.3281 45.5273 28.457C45.5078 30.5664 43.1836 31.7969 39.375 31.7969C35.5859 31.7969 33.2617 30.5664 33.2617 28.457C33.2617 26.3281 35.5859 25.1367 39.375 25.1367ZM39.375 27.0703C36.9922 27.0703 35.7422 27.5195 35.7422 28.457C35.7422 29.3945 36.9922 29.8633 39.375 29.8633C41.7578 29.8633 43.0078 29.3945 43.0273 28.457C43.0078 27.5195 41.7578 27.0703 39.375 27.0703ZM62.3633 15.5859V17.6562C62.3633 20.2344 62.3633 22.7148 61.543 26.5625L59.0625 26.3281C59.4141 24.8438 59.6094 23.5449 59.7461 22.3438L49.4336 22.8516L49.1211 20.8594L59.8633 20.4688C59.9121 19.502 59.9121 18.5742 59.9219 17.6562V17.5781H49.668V15.5859H62.3633ZM64.0234 27.6367V29.668H47.8125V27.6367H64.0234ZM83.7305 14.0234V20.6641H86.3477V22.7539H83.7305V31.7969H81.2305V14.0234H83.7305ZM72.7539 15.4297V19.7656H76.4453V15.4297H78.9258V27.6758H70.2734V15.4297H72.7539ZM72.7539 25.6641H76.4453V21.6992H72.7539V25.6641ZM103.262 27.7734V29.8242H86.9922V27.7734H93.8477V25.0977H88.8672V19.1211H98.9258V17.168H88.8477V15.1758H101.387V21.0742H91.3672V23.0664H101.797V25.0977H96.3281V27.7734H103.262ZM118.301 14.0234V20.8398H120.82V22.8906H118.301V31.7578H115.801V14.0234H118.301ZM113.555 15.8398C113.535 21.1523 111.465 25.7617 105.488 28.6914L104.082 26.7773C108.291 24.668 110.547 21.8359 111.016 17.8711H105.098V15.8398H113.555ZM136.504 14.0234V31.7969H133.984V14.0234H136.504ZM131.172 15.8789C131.172 21.2695 129.277 25.7422 122.93 28.75L121.621 26.7578C126.211 24.5898 128.232 21.7773 128.633 17.832H122.578V15.8789H131.172Z" fill="#383838"/>
<path d="M164.105 17.7891H159.244C158.005 17.7891 157 18.7936 157 20.0328V29.7558C157 30.995 158.005 31.9996 159.244 31.9996H168.967C170.206 31.9996 171.211 30.995 171.211 29.7558V24.8943" stroke="#383838" stroke-width="2" stroke-linecap="round" stroke-linejoin="round"/>
<path d="M163.422 24.164C163.031 24.5545 163.031 25.1876 163.422 25.5782C163.812 25.9687 164.445 25.9687 164.836 25.5782L163.422 24.164ZM176 14.0014C176 13.4491 175.552 13.0014 175 13.0013L166 13.001C165.447 13.0009 165 13.4486 165 14.0009C165 14.5532 165.447 15.0009 166 15.001L174 15.0013L173.999 23.0013C173.999 23.5536 174.447 24.0013 174.999 24.0013C175.551 24.0014 175.999 23.5537 175.999 23.0014L176 14.0014ZM164.836 25.5782L175.707 14.7085L174.293 13.2942L163.422 24.164L164.836 25.5782Z" fill="#383838"/>
</svg>
