<svg xmlns="http://www.w3.org/2000/svg" width="24" height="24" fill="none"><circle cx="12" cy="12" r="10" fill="#00EFAF"/>
<path fill="#fff" d="M10.673 5.084c.418-1.285 2.236-1.285 2.654 0l.83 2.553c.186.575.722.964 1.326.964h2.684c1.352 0 1.914 1.73.82 2.524l-2.17 1.578a1.395 1.395 0 0 0-.508 1.56l.83 2.552c.417 1.285-1.054 2.354-2.148 1.56l-2.17-1.578a1.396 1.396 0 0 0-1.641 0l-2.171 1.578c-1.094.794-2.565-.274-2.148-1.56l.83-2.553a1.395 1.395 0 0 0-.507-1.56l-2.171-1.577c-1.094-.794-.532-2.524.82-2.524h2.684c.604 0 1.14-.39 1.327-.964l.829-2.553Z"/>
</svg>