<svg xmlns="http://www.w3.org/2000/svg" width="24" height="24" fill="none">
<path stroke="#00EFAF" stroke-width="2" d="m17.26 13.954-.95.308.95-.309a.395.395 0 0 1 .144-.441l2.171-1.578c1.877-1.364.913-4.333-1.408-4.333h-2.684a.395.395 0 0 1-.376-.273l-.829-2.553c-.717-2.207-3.84-2.207-4.556 0l-.83 2.553a.395.395 0 0 1-.375.273H5.833c-2.32 0-3.285 2.97-1.408 4.333l2.171 1.578c.139.1.197.279.144.441l-.83 2.553c-.717 2.207 1.81 4.042 3.686 2.678l2.172-1.578c.138-.1.326-.1.464 0l2.172 1.578c1.877 1.364 4.403-.471 3.686-2.678l-.83-2.553Z"/>
</svg>